<svg width="942" height="194" viewBox="0 0 942 194" fill="none" xmlns="http://www.w3.org/2000/svg">
<path d="M535.746 43.1924C535.473 45.8462 535.017 57.2849 534.743 68.632C533.74 105.968 531.733 125.459 527.902 134.244C526.352 137.813 525.987 138.088 522.247 138.362L518.325 138.637L518.052 158.494L517.869 178.443H527.446H537.023V166.547V154.651H566.211H595.398V166.547V178.443H604.52H613.641V158.311V138.179H608.624H603.607L603.425 88.4896L603.151 38.8915L569.677 38.6169L536.203 38.4339L535.746 43.1924ZM583.359 96.2679L583.541 138.179H564.934H546.236L547.604 134.336C550.067 127.198 551.708 114.021 552.621 92.4245C553.077 80.6198 553.806 67.0764 554.08 62.4094L554.536 53.9905L568.765 54.1735L583.085 54.4481L583.359 96.2679Z" fill="black"/>
<path d="M799.072 42.6432C799.711 48.4083 803.633 53.7159 809.288 56.6442C813.21 58.7489 814.943 59.0234 822.514 59.0234C829.628 59.0234 831.817 58.6574 834.827 57.0102C841.212 53.6244 845.316 47.4017 845.316 41.1791V38.4338H837.563C830.905 38.4338 829.719 38.7083 829.263 39.9895C827.804 45.0225 826.527 46.2121 822.787 46.4866C818.5 46.7612 815.217 44.1989 815.217 40.5385C815.217 38.5253 814.943 38.4338 806.917 38.4338H798.525L799.072 42.6432Z" fill="black"/>
<path d="M297.868 69.6386C278.805 72.4754 267.586 90.7773 269.137 116.674C269.775 127.381 271.326 133.055 275.43 140.009C281.359 149.892 290.48 154.559 305.074 155.291C315.654 155.841 323.134 154.742 330.613 151.448L335.447 149.252V141.107V132.963L330.978 135.068C320.58 140.101 306.442 141.565 299.328 138.271C293.673 135.708 291.028 131.591 289.477 122.806L289.021 119.877H312.645H336.359V109.72C336.359 97.549 334.535 88.8556 330.613 82.2669C324.593 72.2009 312.28 67.4424 297.868 69.6386ZM311.459 87.1169C314.013 89.2216 316.293 95.4443 316.293 100.477V105.327L302.885 105.053L289.386 104.778L289.659 100.66C290.115 95.1697 292.761 89.3131 295.679 87.3914C300.422 84.2801 307.902 84.0971 311.459 87.1169Z" fill="black"/>
<path d="M450.92 69.6386C436.235 71.8348 425.746 81.9008 421.642 97.6405C419.817 104.504 419.817 121.524 421.642 128.388C424.652 140.009 430.945 147.971 440.796 152.546C445.904 154.925 446.998 155.108 458.582 155.108C469.619 155.108 471.352 154.925 475.274 153.004L479.561 150.807V143.121C479.561 138.911 479.287 135.434 478.922 135.434C478.557 135.434 476.459 136.349 474.27 137.447C471.625 138.637 467.703 139.552 463.416 139.826C448.093 140.833 441.434 133.604 440.522 115.027C439.793 99.7452 444.444 88.7641 452.745 86.0188C457.944 84.2801 466.791 84.8291 473.632 87.2999L479.652 89.4961L479.378 81.0773L479.104 72.7499L474.544 71.2857C468.706 69.364 457.761 68.5405 450.92 69.6386Z" fill="black"/>
<path d="M662.438 69.6386C656.419 70.7367 653.956 72.0179 649.304 76.4103L644.835 80.6198L644.196 75.4952L643.649 70.4622H634.528H625.498V124.453V178.443H635.531H645.564V161.88V145.317L650.034 149.435C655.598 154.376 660.614 155.932 669.188 155.383C688.16 154.01 699.561 135.617 698.102 108.439C697.099 89.5877 690.531 76.9594 678.948 71.8349C673.475 69.3641 667.546 68.632 662.438 69.6386ZM669.827 86.8424C673.931 89.3132 676.485 95.4443 677.579 105.144C679.312 120.518 676.029 133.512 669.279 137.996C664.81 141.016 655.962 140.558 652.314 137.264C647.662 132.963 646.203 127.839 645.747 115.21C645.2 99.1047 647.662 90.7773 654.229 86.8424C657.969 84.4632 665.996 84.5547 669.827 86.8424Z" fill="black"/>
<path d="M729.935 70.4622C725.465 71.3773 715.797 74.9462 714.246 76.2273C713.425 76.7764 713.061 79.7047 713.061 84.8292C713.061 90.6858 713.334 92.516 714.246 92.1499C726.012 86.9339 732.671 85.1037 740.15 85.1037C748.906 85.1037 753.193 89.3131 753.193 97.915V102.491H745.258C730.664 102.491 719.354 106.242 712.604 113.197C704.122 121.891 705.125 140.833 714.52 149.16C719.81 153.736 723.55 155.017 732.671 154.925C741.518 154.925 745.44 153.736 750.275 149.618L753.011 147.33L753.832 150.716L754.653 154.193H764.047H773.533L773.351 124.636C773.169 93.3396 772.621 87.3915 769.794 81.7179C765.416 73.299 758.757 70.1877 744.072 69.9131C738.326 69.7301 731.941 70.0047 729.935 70.4622ZM753.193 125.825V135.434L749.454 137.905C744.711 141.016 737.414 141.84 733.218 139.643C729.752 137.813 726.742 133.238 726.742 129.669C726.742 120.884 733.492 116.491 747.538 116.308L753.193 116.217V125.825Z" fill="black"/>
<path d="M110 112.5V153H119H129V136.5V119.145H142.354H155V137V153H165L175 153V112.5V71H165.5H156V87V104H142.5H129V87V71H119H110V91.5V112.5Z" fill="black"/>
<path d="M197.445 89.4048C196.898 109.445 195.347 121.799 192.155 131.957C190.239 137.905 190.148 138.088 186.865 138.362L183.581 138.637L183.307 155.841L183.125 172.953H192.246H201.367V163.802V154.651H223.714H246.061V163.802V172.953H255.182H264.303L264.12 155.749L263.847 138.637L259.56 138.362L255.182 138.088V104.229V70.4623H226.541H197.992L197.445 89.4048ZM235.845 112.282L236.027 138.179H221.89C208.664 138.179 207.752 138.088 208.482 136.532C211.036 131.682 213.589 114.753 214.684 96.7255L215.231 85.9274L225.447 86.2019L235.571 86.4765L235.845 112.282Z" fill="black"/>
<path d="M350.041 112.557V154.651H359.618H369.195L369.378 134.336L369.651 113.929L382.786 132.231C389.991 142.297 396.741 151.448 397.744 152.638C399.477 154.468 400.389 154.651 410.058 154.651C418.176 154.651 420.365 154.376 420 153.461C419.817 152.821 412.977 143.029 404.859 131.59C396.832 120.243 390.174 110.452 390.174 109.903C390.174 109.262 396.103 100.386 403.399 90.1367C410.696 79.8877 416.625 71.2858 416.625 71.0113C416.625 70.7367 412.338 70.4622 407.048 70.4622H397.471L384.063 89.5877C376.583 100.203 370.29 108.805 369.925 108.805C369.469 108.896 369.195 100.203 369.195 89.6792V70.4622H359.618H350.041V112.557Z" fill="black"/>
<path d="M788.766 112.557V154.742L797.613 154.468L806.552 154.193L821.146 129.028L835.739 103.863L836.195 129.028L836.651 154.193L846.046 154.468L855.35 154.742V112.557V70.3707L846.593 70.6453L837.837 70.9198L823.061 96.2679L808.376 121.616L808.102 95.9934L807.92 70.4622H798.343H788.766V112.557Z" fill="black"/>
<path d="M871.95 112.282L872.224 154.193H893.658C911.718 154.102 915.914 153.827 920.109 152.455C927.041 150.258 931.602 146.873 934.521 141.931C936.619 138.271 936.983 136.715 936.983 130.309C936.983 123.904 936.71 122.531 934.612 119.328C932.423 116.034 927.497 112.74 922.481 111.184C921.113 110.818 921.569 110.269 924.761 108.622C933.973 103.772 937.166 91.6009 931.876 81.3518C929.96 77.4169 926.494 74.7632 920.839 72.5669C917.647 71.3773 912.539 71.0113 894.297 70.6452L871.768 70.2792L871.95 112.282ZM910.532 86.4764C915.366 88.8556 917.099 95.2613 914.089 99.6537C911.718 102.948 907.34 104.321 898.675 104.321H890.922V94.7122V85.1037H899.222C904.786 85.1037 908.526 85.5613 910.532 86.4764ZM912.812 120.335C916.187 122.074 917.373 124.27 917.373 129.028C917.373 137.081 913.633 139.369 900.499 139.46L891.378 139.552L891.104 129.211L890.831 118.962H900.499C907.34 118.962 910.988 119.328 912.812 120.335Z" fill="black"/>
<path d="M58 92.202L20 153V112.3L58 51V92.202Z" fill="black" stroke="black" stroke-width="0.2"/>
<rect y="27" width="20" height="126.316" fill="black"/>
<rect x="72" y="27" width="20" height="126" fill="black"/>
</svg>
