<svg width="685" height="191" viewBox="0 0 685 191" fill="none" xmlns="http://www.w3.org/2000/svg">
<rect y="27" width="20" height="126" fill="black"/>
<path d="M141.789 153.4C150.594 153.4 157.81 149.271 162.947 141.619L163.925 151.821H181.291V43H162.58V82.3505C157.932 75.3063 150.839 71.5413 142.645 71.5413C124.545 71.5413 111.826 86.7228 111.826 113.078C111.826 138.947 124.178 153.4 141.789 153.4ZM257.239 146.599V131.417C251.369 135.304 241.585 138.826 232.413 138.826C218.715 138.826 213.456 132.389 212.722 119.272H257.973V109.313C257.973 81.8647 245.865 71.5413 227.031 71.5413C204.161 71.5413 193.277 88.9089 193.277 112.714C193.277 140.162 206.852 153.4 230.823 153.4C242.808 153.4 251.614 150.364 257.239 146.599ZM55.0787 95.3459C58.6254 91.095 64.0065 87.5729 70.8553 87.5729C77.4594 87.5729 80.3946 90.3663 80.3946 96.3175V151.943H99.1064V94.3743C99.1064 78.7069 92.8692 71.7842 77.4594 71.7842C66.3302 71.7842 59.6037 75.9135 55.8125 79.5571H54.8341L54.3449 72.9987H36V151.821H54.7118L55.0787 95.3459ZM314.842 151.943H336L310.073 111.378L332.453 73.2416H313.742L300.166 97.0462L285.001 73.2416H263.721L287.692 111.013L262.743 152.064H281.821L297.72 125.466L314.842 151.943ZM147.415 86.237C157.565 86.237 162.58 94.2528 162.58 112.349C162.58 130.688 157.199 138.704 146.681 138.704C136.408 138.704 131.393 130.931 131.393 112.956C131.271 94.3743 136.652 86.237 147.415 86.237ZM226.787 86.237C236.082 86.237 238.894 93.8884 238.894 103.726V105.305H212.722C213.089 92.7954 217.737 86.237 226.787 86.237Z" fill="black"/>
<path d="M509.933 40.4001C503.533 47.2001 508.333 58.6667 517.533 58.6667C524.067 58.6667 528.333 54.4001 528.333 47.6001C528.333 41.0667 524.6 37.3334 517.933 37.3334C514.333 37.3334 511.933 38.2667 509.933 40.4001Z" fill="black"/>
<path d="M361.667 95.3333V152H371.4C407 152 423.533 144 434.2 121.467C438.2 112.933 438.333 112.133 438.333 94.6667C438.333 74 436.333 66 429 55.7333C419.8 43.0667 407.267 38.6667 380.067 38.6667H361.667V95.3333ZM404.067 57.3333C415 63.4667 419.533 74.2667 419.533 94C419.4 110.8 416.333 119.867 407.8 127.733C401.533 133.467 395 136 386.067 136H380.333V94.5333V52.9333L389.533 53.6C395.667 54.1333 400.467 55.3333 404.067 57.3333Z" fill="black"/>
<path d="M487 70.9333C483.667 72.6666 479.133 76.5333 476.867 79.6L472.6 85.0666L471.8 77.2L470.867 69.3333H462.333H453.667V110.667V152.133L462.733 151.733L471.667 151.333L472.333 124.4C473 98 473 97.4666 476.333 94C480.6 89.3333 485.4 86.9333 492.2 85.8666L497.667 84.9333V76.5333C497.667 66.6666 496.733 66.1333 487 70.9333Z" fill="black"/>
<path d="M637.667 69.2001C623.8 73.4667 616.333 83.4667 613.533 101.2C610.067 123.867 617.8 142.533 633.667 149.733C641.8 153.467 660.6 153.467 670.333 149.867L677 147.2L677.4 139.6C677.667 135.467 677.667 132 677.4 132C677.133 132 673.667 133.2 669.667 134.8C660.333 138.267 645.933 138.667 641.133 135.467C636.6 132.533 634.067 128.4 633 122.267L632.067 117.333H655.667H679.4L678.733 104.267C677.933 89.0667 675.133 81.4667 667.933 75.0667C660.733 68.6667 647.667 66.2667 637.667 69.2001ZM653.4 84.8001C657.133 87.3334 658.467 90.0001 659.667 96.9334L660.6 102.667H646.333H632.067L633 97.6001C635.267 85.0667 645.133 78.9334 653.4 84.8001Z" fill="black"/>
<path d="M508.333 110.667V152H517.667H527V110.667V69.3333H517.667H508.333V110.667Z" fill="black"/>
<path d="M535.4 71.2C535.8 72.2666 539.267 83.2 543 95.4666C546.733 107.867 552.2 125.733 555.133 135.067L560.467 152.133L572.733 151.733L584.867 151.333L597.267 110.667C604.067 88.2666 609.667 69.8666 609.667 69.6C609.667 69.4666 605.533 69.3333 600.6 69.3333H591.533L583 100.133C578.333 116.933 574.067 131.067 573.667 131.333C573.133 131.6 568.6 117.867 563.667 100.667L554.6 69.3333H544.6C536.733 69.3333 534.867 69.7333 535.4 71.2Z" fill="black"/>
</svg>
